HIERARCHY
ROOT Hips
{
	OFFSET 0.000000 0.000000 0.000000
	CHANNELS 6 Xposition Yposition Zposition Xrotation Yrotation Zrotation
	JOINT LeftUpLeg_virtual
	{
		OFFSET 0.000000 0.000000 0.000000
		CHANNELS 3 Xrotation Yrotation Zrotation
		JOINT LeftUpLeg
		{
			OFFSET 11.394100 -6.187798 -0.413800
			CHANNELS 3 Xrotation Yrotation Zrotation
			JOINT LeftLeg
			{
				OFFSET 0.430247 -32.302673 3.732800
				CHANNELS 3 Xrotation Yrotation Zrotation
				JOINT LeftFoot
				{
					OFFSET -0.430247 -48.264931 -6.423300
					CHANNELS 3 Xrotation Yrotation Zrotation
					JOINT LeftToeBase
					{
						OFFSET 4.230900 -16.068199 23.438400
						CHANNELS 3 Xrotation Yrotation Zrotation
						JOINT LeftToe_End
						{
							OFFSET 4.510700 0.695400 19.974600
							CHANNELS 3 Xrotation Yrotation Zrotation
							End Site
							{
								OFFSET 0 0 0
							}
						}
					}
				}
			}
		}
	}
	JOINT RightUpLeg_virtual
	{
		OFFSET 0.000000 0.000000 0.000000
		CHANNELS 3 Xrotation Yrotation Zrotation
		JOINT RightUpLeg
		{
			OFFSET -11.333700 -6.187798 -0.413800
			CHANNELS 3 Xrotation Yrotation Zrotation
			JOINT RightLeg
			{
				OFFSET -0.430392 -32.302628 3.733000
				CHANNELS 3 Xrotation Yrotation Zrotation
				JOINT RightFoot
				{
					OFFSET 0.430392 -48.264973 -6.423500
					CHANNELS 3 Xrotation Yrotation Zrotation
					JOINT RightToeBase
					{
						OFFSET -4.230900 -16.068199 23.438400
						CHANNELS 3 Xrotation Yrotation Zrotation
						JOINT RightToe_End
						{
							OFFSET -4.510700 0.695400 19.974600
							CHANNELS 3 Xrotation Yrotation Zrotation
							End Site
							{
								OFFSET 0 0 0
							}
						}
					}
				}
			}
		}
	}
	JOINT Spine_virtual
	{
		OFFSET 0.000000 0.000000 0.000000
		CHANNELS 3 Xrotation Yrotation Zrotation
		JOINT Spine
		{
			OFFSET -0.002400 12.777504 0.315300
			CHANNELS 3 Xrotation Yrotation Zrotation
			JOINT Spine1
			{
				OFFSET -0.002067 5.816869 0.032633
				CHANNELS 3 Xrotation Yrotation Zrotation
				JOINT Spine1_split
				{
					OFFSET -0.002067 5.816869 0.032633
					CHANNELS 3 Xrotation Yrotation Zrotation
					JOINT Spine2
					{
						OFFSET -0.002067 5.816869 0.032633
						CHANNELS 3 Xrotation Yrotation Zrotation
						JOINT Neck_virtual
						{
							OFFSET 0.000000 0.000000 0.000000
							CHANNELS 3 Xrotation Yrotation Zrotation
							JOINT Neck
							{
								OFFSET -0.003700 21.199493 -0.826900
								CHANNELS 3 Xrotation Yrotation Zrotation
								JOINT Head
								{
									OFFSET 0.000000 20.442200 4.834800
									CHANNELS 3 Xrotation Yrotation Zrotation
									JOINT HeadTop_End
									{
										OFFSET 0.000000 34.668396 4.968400
										CHANNELS 3 Xrotation Yrotation Zrotation
										End Site
										{
											OFFSET 0 0 0
										}
									}
								}
							}
						}
						JOINT LeftShoulder_virtual
						{
							OFFSET 0.000000 0.000000 0.000000
							CHANNELS 3 Xrotation Yrotation Zrotation
							JOINT LeftShoulder
							{
								OFFSET 3.288150 8.794197 -1.372250
								CHANNELS 3 Xrotation Yrotation Zrotation
								JOINT LeftShoulder_split
								{
									OFFSET 3.288150 8.794197 -1.372250
									CHANNELS 3 Xrotation Yrotation Zrotation
									JOINT LeftArm
									{
										OFFSET 11.953299 -2.279007 -0.146200
										CHANNELS 3 Xrotation Yrotation Zrotation
										JOINT LeftForeArm
										{
											OFFSET 18.448900 0.000000 0.000000
											CHANNELS 3 Xrotation Yrotation Zrotation
											JOINT LeftHand
											{
												OFFSET 29.527798 0.000000 0.000000
												CHANNELS 3 Xrotation Yrotation Zrotation
												End Site
												{
													OFFSET 0 0 0
												}
											}
										}
									}
								}
							}
						}
						JOINT RightShoulder_virtual
						{
							OFFSET 0.000000 0.000000 0.000000
							CHANNELS 3 Xrotation Yrotation Zrotation
							JOINT RightShoulder
							{
								OFFSET -3.249400 8.794197 -1.372250
								CHANNELS 3 Xrotation Yrotation Zrotation
								JOINT RightShoulder_split
								{
									OFFSET -3.249400 8.794197 -1.372250
									CHANNELS 3 Xrotation Yrotation Zrotation
									JOINT RightArm
									{
										OFFSET -11.953299 -2.279007 -0.146200
										CHANNELS 3 Xrotation Yrotation Zrotation
										JOINT RightForeArm
										{
											OFFSET -18.448900 0.000000 0.000000
											CHANNELS 3 Xrotation Yrotation Zrotation
											JOINT RightHand
											{
												OFFSET -29.527802 0.000000 0.000000
												CHANNELS 3 Xrotation Yrotation Zrotation
												End Site
												{
													OFFSET 0 0 0
												}
											}
										}
									}
								}
							}
						}
					}
				}
			}
		}
	}
}
MOTION
Frames: 8
Frame Time: 0.03333333
-2.806170 107.318901 12.785164 0.000000 0.000000 0.000000 -18.343969 -22.068186 -4.967461 -82.578619 19.664934 39.351479 112.264507 -18.485203 -6.376067 -39.006920 -12.347566 30.687784 -48.263896 -3.433980 -7.541459 0.000000 0.000000 0.000000 -17.753325 -27.406477 -5.429347 -123.573982 -7.158361 -21.806340 121.617679 10.236915 -4.255514 -5.793509 -1.168438 -0.234563 -41.507657 7.964852 9.595939 0.000000 0.000000 0.000000 -11.620051 -26.136969 -4.979513 5.515473 7.249761 -0.628572 14.063662 1.741711 -1.564232 -0.244637 -12.339622 1.717753 0.000000 0.000000 0.000000 19.656528 1.140193 -0.881778 -26.993099 -2.206971 -4.580316 -9.925632 8.802560 3.610495 0.000000 0.000000 0.000000 15.389635 1.486009 -1.119143 2.745085 -5.060753 38.711156 1.353404 -2.992340 -0.268428 -47.055413 -28.363182 -5.944923 -18.380493 -35.764807 0.534007 0.000000 0.000000 0.000000 15.202239 0.736719 -1.173997 10.598714 18.847441 -36.767065 6.462266 2.399318 -0.784562 -57.090693 21.759048 11.887352 -14.790653 38.763048 5.182178 0.000000 0.000000 0.000000 
-2.774325 106.013977 12.197906 0.000000 0.000000 0.000000 -20.193432 -22.617400 -4.900091 -85.122243 18.921740 39.118413 114.233780 -18.588954 -5.439934 -37.517362 -11.844946 29.571297 -49.321749 -3.739442 -6.957242 0.000000 0.000000 0.000000 -19.876462 -26.562986 -5.566245 -123.865385 -6.961568 -22.646669 122.185049 9.827719 -3.547106 -6.679031 -1.500402 0.290675 -44.329748 7.551613 9.892646 0.000000 0.000000 0.000000 -14.747338 -25.629856 -5.241471 5.896041 6.895541 -0.556374 13.920250 1.707268 -1.299291 0.431700 -8.422773 2.767542 0.000000 0.000000 0.000000 19.260988 0.963555 -0.660196 -25.573972 -1.839858 -4.108015 -9.477009 10.157408 3.458045 0.000000 0.000000 0.000000 15.457746 1.305578 -0.730319 2.749529 -5.238781 39.028107 -0.799343 -2.733483 0.638849 -50.195689 -27.392141 -4.704223 -18.425689 -33.535355 1.438595 0.000000 0.000000 0.000000 14.675426 0.453320 -1.131559 10.729050 20.327616 -36.479566 6.361263 -1.110469 -0.547380 -59.194572 19.512978 12.333969 -17.143978 41.842265 6.671641 0.000000 0.000000 0.000000 
-2.631756 104.977280 11.548538 0.000000 0.000000 0.000000 -22.172080 -22.422230 -4.720269 -88.107828 18.160297 38.868670 116.686651 -18.103148 -3.374116 -33.829322 -11.004415 27.240835 -51.680606 -4.069106 -6.467256 0.000000 0.000000 0.000000 -22.618445 -24.855318 -5.575865 -122.594942 -6.374185 -23.928376 122.941684 9.072339 -2.915740 -7.418625 -1.613276 0.013528 -46.443292 7.006159 10.779019 0.000000 0.000000 0.000000 -18.022494 -24.433450 -5.592821 6.253187 6.044900 -0.644427 13.268908 1.429642 -0.768057 4.407427 -5.692776 3.233763 0.000000 0.000000 0.000000 18.008106 0.744229 -0.236285 -23.989508 -1.429046 -2.961101 -9.055373 11.203383 2.662565 0.000000 0.000000 0.000000 14.432371 0.977256 -0.138826 2.901849 -5.806664 39.825955 -1.309395 -3.081708 1.394889 -54.169547 -25.034494 -6.124605 -18.262632 -33.898017 2.215346 0.000000 0.000000 0.000000 13.254665 0.128674 -0.743128 10.572608 21.600190 -36.021192 6.225944 -4.158421 0.237693 -59.294375 17.920907 11.767438 -20.220369 44.974948 7.795932 0.000000 0.000000 0.000000 
-2.211196 104.876205 10.573559 0.000000 0.000000 0.000000 -24.193135 -21.240973 -4.451422 -90.052486 17.774606 38.626690 117.575846 -16.854839 -1.483475 -29.583684 -9.983119 24.393812 -53.640348 -4.006911 -6.827116 0.000000 0.000000 0.000000 -25.535595 -22.299533 -5.419262 -119.359304 -5.652925 -25.054020 122.718337 8.223559 -2.620319 -7.845073 -1.351189 -0.795055 -48.000503 6.420650 12.165372 0.000000 0.000000 0.000000 -20.966799 -23.095484 -6.062995 6.816631 4.959792 -0.747406 12.555326 1.041431 -0.164214 7.124843 -1.741336 2.066227 0.000000 0.000000 0.000000 16.431109 0.554616 0.236346 -22.795493 -1.285228 -1.302095 -8.694644 11.844275 1.446279 0.000000 0.000000 0.000000 13.175791 0.551596 0.514763 3.118174 -6.503505 40.515958 -0.615600 -3.226185 2.437360 -57.755827 -21.706597 -9.809801 -18.001992 -35.807034 2.854549 0.000000 0.000000 0.000000 11.686939 -0.125195 -0.104995 10.339991 22.643469 -35.561127 5.778434 -5.218883 0.833858 -57.519195 17.251869 11.575294 -22.919613 48.035290 8.031347 0.000000 0.000000 0.000000 
-1.720684 105.917191 9.068882 0.000000 0.000000 0.000000 -26.720561 -19.717219 -4.385465 -89.666396 17.322646 37.805725 116.266963 -15.420504 0.153772 -24.869941 -8.587454 20.678405 -55.176966 -3.578439 -7.692488 0.000000 0.000000 0.000000 -28.490621 -19.320498 -5.157416 -113.684524 -5.421956 -25.463036 121.148445 7.347739 -2.624292 -7.440466 -0.788409 -1.894701 -50.602273 5.760368 13.855974 0.000000 0.000000 0.000000 -23.647901 -21.807293 -6.573811 7.667132 4.010738 -0.739003 12.269196 0.585683 0.368991 8.318128 1.433054 1.037024 0.000000 0.000000 0.000000 15.392087 0.395289 0.621295 -22.364642 -1.745514 0.510076 -7.997183 12.136442 0.160740 0.000000 0.000000 0.000000 12.446287 0.171511 1.037762 3.224383 -6.919980 40.600577 1.026810 -2.818551 3.837092 -60.915028 -17.810572 -15.042911 -17.961357 -37.398875 3.462478 0.000000 0.000000 0.000000 10.832437 -0.267536 0.623403 10.014399 23.351928 -35.325783 5.339528 -4.096163 1.149199 -54.848256 17.366183 12.405137 -24.103854 50.312215 6.712502 0.000000 0.000000 0.000000 
-1.227878 108.228859 7.243629 0.000000 0.000000 0.000000 -29.883679 -18.198889 -4.646257 -86.857351 16.671213 36.624827 112.719609 -14.495755 2.000261 -18.976740 -7.126316 15.685801 -58.111939 -3.130775 -8.206490 0.000000 0.000000 0.000000 -31.190827 -16.751563 -5.002807 -105.985405 -6.035029 -25.153463 118.233812 6.504823 -2.839365 -5.125397 -0.315452 -2.584197 -55.927153 4.771186 15.426870 0.000000 0.000000 0.000000 -26.629941 -20.560946 -7.001964 8.905257 3.567421 -0.522165 12.960455 0.203831 0.619255 7.957501 2.695132 0.053759 0.000000 0.000000 0.000000 15.801204 0.254328 0.733391 -22.471891 -2.814960 2.028881 -6.465549 12.839911 -0.796759 0.000000 0.000000 0.000000 13.073365 -0.118404 1.265568 3.072735 -6.744968 39.565309 2.359614 -1.085644 4.847828 -63.640329 -14.314396 -20.569528 -18.305476 -37.847567 4.185827 0.000000 0.000000 0.000000 11.481226 -0.333406 1.212718 9.555948 23.907115 -35.370657 4.291532 -1.820979 1.015280 -52.585394 17.964482 14.485493 -22.921287 51.171449 3.381422 0.000000 0.000000 0.000000 
-0.716698 111.495895 5.369209 0.000000 0.000000 0.000000 -33.110288 -16.623140 -5.089800 -81.582853 16.588089 35.296252 107.272485 -13.700910 3.287601 -12.465827 -5.806742 11.879628 -63.563441 -2.681073 -8.459380 0.000000 0.000000 0.000000 -33.654770 -14.787218 -5.074170 -97.048334 -7.734628 -24.231476 113.651786 5.705473 -2.998115 -0.761040 -0.237904 -2.386496 -63.450723 3.248554 16.533701 0.000000 0.000000 0.000000 -30.073801 -19.426904 -7.368215 10.296452 3.721268 0.058650 14.833187 0.005302 0.578710 4.474547 3.124013 -0.585468 0.000000 0.000000 0.000000 17.828506 0.155805 0.451886 -22.356763 -4.036587 2.906085 -3.887649 13.529730 -1.134731 0.000000 0.000000 0.000000 15.535718 -0.323753 1.090101 2.853880 -6.285052 37.167427 3.101033 1.044971 5.813345 -66.777619 -11.760625 -25.553174 -18.495288 -37.007065 5.462902 0.000000 0.000000 0.000000 14.000897 -0.191528 1.428149 9.199467 24.632751 -35.177441 2.894077 0.554822 0.845484 -51.823299 18.031927 17.220184 -19.670859 49.839566 -1.465677 0.000000 0.000000 0.000000 
-0.454297 115.660797 3.835564 0.000000 0.000000 0.000000 -36.032827 -15.270237 -5.661462 -74.193558 17.232064 33.705505 100.032369 -13.147016 4.453903 -5.048236 -4.434199 8.925602 -72.118963 -2.220701 -8.018107 0.000000 0.000000 0.000000 -35.681567 -12.837975 -5.130590 -87.436749 -10.310594 -22.856098 107.665843 4.890197 -2.898044 5.400560 -0.519303 -1.237356 -71.337924 1.297786 17.128156 0.000000 0.000000 0.000000 -33.739919 -18.573127 -7.816360 11.454966 4.283029 0.877435 17.785089 -0.036009 0.351662 1.313892 2.639644 -0.383549 0.000000 0.000000 0.000000 21.306864 0.051669 -0.129708 -21.189535 -4.997219 2.894315 -0.367883 13.764564 -0.796799 0.000000 0.000000 0.000000 19.271321 -0.473783 0.628563 2.760407 -5.848895 33.776617 2.981537 2.147388 5.658492 -70.156814 -10.784439 -29.854299 -17.794904 -36.039452 7.488218 0.000000 0.000000 0.000000 17.979875 0.030038 1.230797 8.861668 25.820109 -34.328770 2.042386 2.140337 0.548164 -52.736676 17.671480 19.290194 -15.943627 46.618264 -6.130692 0.000000 0.000000 0.000000 
